<?xml version="1.0" encoding="UTF-8" standalone="no"?><svg xmlns="http://www.w3.org/2000/svg" xmlns:xlink="http://www.w3.org/1999/xlink" contentScriptType="application/ecmascript" contentStyleType="text/css" height="408px" preserveAspectRatio="none" style="width:243px;height:408px;" version="1.1" viewBox="0 0 243 408" width="243.6px" zoomAndPan="magnify"><defs><filter height="300%" id="fofxg3vn6iv5n" width="300%" x="-1" y="-1"><feGaussianBlur result="blurOut" stdDeviation="2.4"/><feColorMatrix in="blurOut" result="blurOut2" type="matrix" values="0 0 0 0 0 0 0 0 0 0 0 0 0 0 0 0 0 0 .4 0"/><feOffset dx="4.8" dy="4.8" in="blurOut2" result="blurOut3"/><feBlend in="SourceGraphic" in2="blurOut3" mode="normal"/></filter></defs><g><!--MD5=[afdac0f740b27b59a461bf6006ee1289]
class ConsultarTarefasUI--><rect codeLine="4" fill="#FEFECE" filter="url(#fofxg3vn6iv5n)" height="57.6" id="ConsultarTarefasUI" style="stroke:#A80036;stroke-width:1.7999999999999998;" width="168" x="33.6" y="8.4"/><ellipse cx="51.6" cy="27.6" fill="#ADD1B2" rx="13.2" ry="13.2" style="stroke:#A80036;stroke-width:1.2;"/><path d="M54,23.4 Q54.2438,22.8 54.525,22.5 Q54.8063,22.2 55.125,22.2 Q55.6875,22.2 56.0437,22.5375 Q56.4,22.875 56.4,23.6625 L56.4,25.5375 Q56.4,26.325 56.0625,26.6625 Q55.725,27 55.2,27 Q54.7312,27 54.4313,26.7938 Q54.1313,26.5875 54,26.0438 Q53.9438,25.6688 53.7375,25.4625 Q53.3625,25.0687 52.6875,24.8438 Q52.0125,24.6 51.3375,24.6 Q50.4938,24.6 49.7813,24.9375 Q49.0875,25.275 48.5437,26.025 Q48,26.775 48,27.8063 L48,28.9125 Q48,30.15 49.0125,30.975 Q50.025,31.8 51.825,31.8 Q52.8938,31.8 53.6438,31.5563 Q54.075,31.425 54.5625,30.9938 Q54.8813,30.75 55.05,30.675 Q55.2188,30.6 55.425,30.6 Q55.8188,30.6 56.1,30.9188 Q56.4,31.2188 56.4,31.65 Q56.4,32.0625 55.9875,32.55 Q55.3875,33.2625 54.4313,33.6563 Q53.175,34.2 51.6375,34.2 Q49.8375,34.2 48.3938,33.4875 Q47.2312,32.925 46.4063,31.7062 Q45.6,30.4875 45.6,29.0438 L45.6,27.7313 Q45.6,26.2313 46.3125,24.9188 Q47.0437,23.6063 48.3,22.9125 Q49.575,22.2 51,22.2 Q51.8625,22.2 52.6125,22.5 Q53.3625,22.8 54,23.4 Z " fill="#000000"/><text fill="#000000" font-family="sans-serif" font-size="14.4" lengthAdjust="spacing" textLength="129.6" x="68.4" y="33.4922">ConsultarTarefasUI</text><line style="stroke:#A80036;stroke-width:1.7999999999999998;" x1="34.8" x2="200.4" y1="46.8" y2="46.8"/><line style="stroke:#A80036;stroke-width:1.7999999999999998;" x1="34.8" x2="200.4" y1="56.4" y2="56.4"/><!--MD5=[d3c8e35004c6548e2936e691f162b2fb]
class ConsultarTarefasController--><rect codeLine="7" fill="#FEFECE" filter="url(#fofxg3vn6iv5n)" height="107.4094" id="ConsultarTarefasController" style="stroke:#A80036;stroke-width:1.7999999999999998;" width="218.4" x="8.4" y="138"/><ellipse cx="26.4" cy="157.2" fill="#ADD1B2" rx="13.2" ry="13.2" style="stroke:#A80036;stroke-width:1.2;"/><path d="M28.8,153 Q29.0438,152.4 29.325,152.1 Q29.6063,151.8 29.925,151.8 Q30.4875,151.8 30.8438,152.1375 Q31.2,152.475 31.2,153.2625 L31.2,155.1375 Q31.2,155.925 30.8625,156.2625 Q30.525,156.6 30,156.6 Q29.5313,156.6 29.2313,156.3937 Q28.9313,156.1875 28.8,155.6437 Q28.7438,155.2687 28.5375,155.0625 Q28.1625,154.6688 27.4875,154.4438 Q26.8125,154.2 26.1375,154.2 Q25.2938,154.2 24.5813,154.5375 Q23.8875,154.875 23.3438,155.625 Q22.8,156.375 22.8,157.4063 L22.8,158.5125 Q22.8,159.75 23.8125,160.575 Q24.825,161.4 26.625,161.4 Q27.6937,161.4 28.4437,161.1563 Q28.875,161.025 29.3625,160.5938 Q29.6813,160.35 29.85,160.275 Q30.0187,160.2 30.225,160.2 Q30.6188,160.2 30.9,160.5187 Q31.2,160.8188 31.2,161.25 Q31.2,161.6625 30.7875,162.15 Q30.1875,162.8625 29.2313,163.2563 Q27.975,163.8 26.4375,163.8 Q24.6375,163.8 23.1937,163.0875 Q22.0313,162.525 21.2063,161.3063 Q20.4,160.0875 20.4,158.6437 L20.4,157.3312 Q20.4,155.8312 21.1125,154.5187 Q21.8438,153.2062 23.1,152.5125 Q24.375,151.8 25.8,151.8 Q26.6625,151.8 27.4125,152.1 Q28.1625,152.4 28.8,153 Z " fill="#000000"/><text fill="#000000" font-family="sans-serif" font-size="14.4" lengthAdjust="spacing" textLength="180" x="43.2" y="163.0922">ConsultarTarefasController</text><line style="stroke:#A80036;stroke-width:1.7999999999999998;" x1="9.6" x2="225.6" y1="176.4" y2="176.4"/><line style="stroke:#A80036;stroke-width:1.7999999999999998;" x1="9.6" x2="225.6" y1="186" y2="186"/><text fill="#000000" font-family="sans-serif" font-size="13.2" lengthAdjust="spacing" textLength="181.2" x="15.6" y="204.5027">+obterListaTarefasPendentes()</text><text fill="#000000" font-family="sans-serif" font-size="13.2" lengthAdjust="spacing" textLength="112.8" x="15.6" y="221.1059">+pesquisarTarefa()</text><text fill="#000000" font-family="sans-serif" font-size="13.2" lengthAdjust="spacing" textLength="100.8" x="15.6" y="237.709">+ordenarTarefa()</text><!--MD5=[0621d7f99998fdd0c41ebfa092a5fc6d]
class RepositorioTarefas--><rect codeLine="13" fill="#FEFECE" filter="url(#fofxg3vn6iv5n)" height="74.2031" id="RepositorioTarefas" style="stroke:#A80036;stroke-width:1.7999999999999998;" width="195.6" x="19.8" y="318"/><ellipse cx="51.3" cy="337.2" fill="#ADD1B2" rx="13.2" ry="13.2" style="stroke:#A80036;stroke-width:1.2;"/><path d="M53.7,333 Q53.9438,332.4 54.225,332.1 Q54.5063,331.8 54.825,331.8 Q55.3875,331.8 55.7438,332.1375 Q56.1,332.475 56.1,333.2625 L56.1,335.1375 Q56.1,335.925 55.7625,336.2625 Q55.425,336.6 54.9,336.6 Q54.4313,336.6 54.1313,336.3938 Q53.8313,336.1875 53.7,335.6438 Q53.6438,335.2688 53.4375,335.0625 Q53.0625,334.6688 52.3875,334.4437 Q51.7125,334.2 51.0375,334.2 Q50.1938,334.2 49.4812,334.5375 Q48.7875,334.875 48.2438,335.625 Q47.7,336.375 47.7,337.4063 L47.7,338.5125 Q47.7,339.75 48.7125,340.575 Q49.725,341.4 51.525,341.4 Q52.5938,341.4 53.3438,341.1563 Q53.775,341.025 54.2625,340.5938 Q54.5813,340.35 54.75,340.275 Q54.9187,340.2 55.125,340.2 Q55.5188,340.2 55.8,340.5188 Q56.1,340.8187 56.1,341.25 Q56.1,341.6625 55.6875,342.15 Q55.0875,342.8625 54.1313,343.2562 Q52.875,343.8 51.3375,343.8 Q49.5375,343.8 48.0938,343.0875 Q46.9313,342.525 46.1062,341.3063 Q45.3,340.0875 45.3,338.6438 L45.3,337.3313 Q45.3,335.8313 46.0125,334.5188 Q46.7438,333.2063 48,332.5125 Q49.275,331.8 50.7,331.8 Q51.5625,331.8 52.3125,332.1 Q53.0625,332.4 53.7,333 Z " fill="#000000"/><text fill="#000000" font-family="sans-serif" font-size="14.4" lengthAdjust="spacing" textLength="127.2" x="71.1" y="343.0922">RepositorioTarefas</text><line style="stroke:#A80036;stroke-width:1.7999999999999998;" x1="21" x2="214.2" y1="356.4" y2="356.4"/><line style="stroke:#A80036;stroke-width:1.7999999999999998;" x1="21" x2="214.2" y1="366" y2="366"/><text fill="#000000" font-family="sans-serif" font-size="13.2" lengthAdjust="spacing" textLength="181.2" x="27" y="384.5027">+obterListaTarefasPendentes()</text><!--MD5=[2c5ed8deb50efb8fddb80fdc673eca6d]
link ConsultarTarefasUI to ConsultarTarefasController--><path codeLine="17" d="M117.6,66.348 C117.6,84.576 117.6,109.056 117.6,131.472 " fill="none" id="ConsultarTarefasUI-to-ConsultarTarefasController" style="stroke:#A80036;stroke-width:1.2;stroke-dasharray:7.0,7.0;"/><polygon fill="#A80036" points="117.6,137.736,122.4,126.936,117.6,131.736,112.8,126.936,117.6,137.736" style="stroke:#A80036;stroke-width:1.2;"/><!--MD5=[e341df35db459d234a1aea899887a55e]
link ConsultarTarefasController to RepositorioTarefas--><path codeLine="18" d="M117.6,246.3 C117.6,267.516 117.6,291.624 117.6,311.64 " fill="none" id="ConsultarTarefasController-to-RepositorioTarefas" style="stroke:#A80036;stroke-width:1.2;stroke-dasharray:7.0,7.0;"/><polygon fill="#A80036" points="117.6,317.712,122.4,306.912,117.6,311.712,112.8,306.912,117.6,317.712" style="stroke:#A80036;stroke-width:1.2;"/><!--MD5=[cee43287a0f2057ae27b85da2443dbbd]
@startuml

skinparam classAttributeIconSize 0

class ConsultarTarefasUI{
}

class ConsultarTarefasController{
+obterListaTarefasPendentes()
+pesquisarTarefa()
+ordenarTarefa()
}

class RepositorioTarefas{
+obterListaTarefasPendentes()
}

ConsultarTarefasUI ..> ConsultarTarefasController
ConsultarTarefasController ..> RepositorioTarefas


@enduml

PlantUML version 1.2021.5(Sun Apr 25 12:20:28 BST 2021)
(GPL source distribution)
Java Runtime: OpenJDK Runtime Environment
JVM: Dynamic Code Evolution 64-Bit Server VM
Default Encoding: Cp1252
Language: pt
Country: PT
--></g></svg>