<?xml version="1.0" encoding="UTF-8" standalone="no"?><svg xmlns="http://www.w3.org/2000/svg" xmlns:xlink="http://www.w3.org/1999/xlink" contentScriptType="application/ecmascript" contentStyleType="text/css" height="592px" preserveAspectRatio="none" style="width:914px;height:592px;" version="1.1" viewBox="0 0 914 592" width="914px" zoomAndPan="magnify"><defs><filter height="300%" id="fkuuxfuyz8vnf" width="300%" x="-1" y="-1"><feGaussianBlur result="blurOut" stdDeviation="2.0"/><feColorMatrix in="blurOut" result="blurOut2" type="matrix" values="0 0 0 0 0 0 0 0 0 0 0 0 0 0 0 0 0 0 .4 0"/><feOffset dx="4.0" dy="4.0" in="blurOut2" result="blurOut3"/><feBlend in="SourceGraphic" in2="blurOut3" mode="normal"/></filter></defs><g><rect fill="#FFFFFF" filter="url(#fkuuxfuyz8vnf)" height="398.5156" style="stroke:#A80036;stroke-width:1.0;" width="10" x="57.5" y="99.6094"/><rect fill="#FFFFFF" filter="url(#fkuuxfuyz8vnf)" height="121.0547" style="stroke:#A80036;stroke-width:1.0;" width="10" x="409.5" y="121.9609"/><rect fill="#FFFFFF" filter="url(#fkuuxfuyz8vnf)" height="60.3516" style="stroke:#A80036;stroke-width:1.0;" width="10" x="409.5" y="298.7188"/><rect fill="#FFFFFF" filter="url(#fkuuxfuyz8vnf)" height="60.3516" style="stroke:#A80036;stroke-width:1.0;" width="10" x="409.5" y="421.7734"/><rect fill="#FFFFFF" filter="url(#fkuuxfuyz8vnf)" height="60.3516" style="stroke:#A80036;stroke-width:1.0;" width="10" x="618.5" y="152.3125"/><rect fill="#FFFFFF" filter="url(#fkuuxfuyz8vnf)" height="30" style="stroke:#A80036;stroke-width:1.0;" width="10" x="618.5" y="329.0703"/><rect fill="#FFFFFF" filter="url(#fkuuxfuyz8vnf)" height="30" style="stroke:#A80036;stroke-width:1.0;" width="10" x="618.5" y="452.125"/><rect fill="#FFFFFF" filter="url(#fkuuxfuyz8vnf)" height="30" style="stroke:#A80036;stroke-width:1.0;" width="10" x="827.5" y="182.6641"/><rect fill="#FFFFFF" filter="url(#fkuuxfuyz8vnf)" height="109.0547" style="stroke:#000000;stroke-width:2.0;" width="720.5" x="10" y="258.0156"/><rect fill="#FFFFFF" filter="url(#fkuuxfuyz8vnf)" height="109.0547" style="stroke:#000000;stroke-width:2.0;" width="720.5" x="10" y="381.0703"/><line style="stroke:#A80036;stroke-width:1.0;stroke-dasharray:5.0,5.0;" x1="62" x2="62" y1="89.6094" y2="507.125"/><line style="stroke:#A80036;stroke-width:1.0;stroke-dasharray:5.0,5.0;" x1="414.5" x2="414.5" y1="89.6094" y2="507.125"/><line style="stroke:#A80036;stroke-width:1.0;stroke-dasharray:5.0,5.0;" x1="623.5" x2="623.5" y1="89.6094" y2="507.125"/><line style="stroke:#A80036;stroke-width:1.0;stroke-dasharray:5.0,5.0;" x1="832" x2="832" y1="89.6094" y2="507.125"/><text fill="#000000" font-family="sans-serif" font-size="14" lengthAdjust="spacing" textLength="79" x="20" y="86.5332">Colaborador</text><ellipse cx="62.5" cy="15" fill="#FEFECE" filter="url(#fkuuxfuyz8vnf)" rx="8" ry="8" style="stroke:#A80036;stroke-width:2.0;"/><path d="M62.5,23 L62.5,50 M49.5,31 L75.5,31 M62.5,50 L49.5,65 M62.5,50 L75.5,65 " fill="none" filter="url(#fkuuxfuyz8vnf)" style="stroke:#A80036;stroke-width:2.0;"/><text fill="#000000" font-family="sans-serif" font-size="14" lengthAdjust="spacing" textLength="79" x="20" y="520.6582">Colaborador</text><ellipse cx="62.5" cy="533.7344" fill="#FEFECE" filter="url(#fkuuxfuyz8vnf)" rx="8" ry="8" style="stroke:#A80036;stroke-width:2.0;"/><path d="M62.5,541.7344 L62.5,568.7344 M49.5,549.7344 L75.5,549.7344 M62.5,568.7344 L49.5,583.7344 M62.5,568.7344 L75.5,583.7344 " fill="none" filter="url(#fkuuxfuyz8vnf)" style="stroke:#A80036;stroke-width:2.0;"/><rect fill="#FEFECE" filter="url(#fkuuxfuyz8vnf)" height="31.6094" style="stroke:#A80036;stroke-width:1.5;" width="140" x="342.5" y="53"/><text fill="#000000" font-family="sans-serif" font-size="14" lengthAdjust="spacing" textLength="126" x="349.5" y="74.5332">:ConsultarTarefasUI</text><rect fill="#FEFECE" filter="url(#fkuuxfuyz8vnf)" height="31.6094" style="stroke:#A80036;stroke-width:1.5;" width="140" x="342.5" y="506.125"/><text fill="#000000" font-family="sans-serif" font-size="14" lengthAdjust="spacing" textLength="126" x="349.5" y="527.6582">:ConsultarTarefasUI</text><rect fill="#FEFECE" filter="url(#fkuuxfuyz8vnf)" height="31.6094" style="stroke:#A80036;stroke-width:1.5;" width="190" x="526.5" y="53"/><text fill="#000000" font-family="sans-serif" font-size="14" lengthAdjust="spacing" textLength="176" x="533.5" y="74.5332">:ConsultarTarefasController</text><rect fill="#FEFECE" filter="url(#fkuuxfuyz8vnf)" height="31.6094" style="stroke:#A80036;stroke-width:1.5;" width="190" x="526.5" y="506.125"/><text fill="#000000" font-family="sans-serif" font-size="14" lengthAdjust="spacing" textLength="176" x="533.5" y="527.6582">:ConsultarTarefasController</text><rect fill="#FEFECE" filter="url(#fkuuxfuyz8vnf)" height="31.6094" style="stroke:#A80036;stroke-width:1.5;" width="139" x="761" y="53"/><text fill="#000000" font-family="sans-serif" font-size="14" lengthAdjust="spacing" textLength="125" x="768" y="74.5332">:RepositorioTarefas</text><rect fill="#FEFECE" filter="url(#fkuuxfuyz8vnf)" height="31.6094" style="stroke:#A80036;stroke-width:1.5;" width="139" x="761" y="506.125"/><text fill="#000000" font-family="sans-serif" font-size="14" lengthAdjust="spacing" textLength="125" x="768" y="527.6582">:RepositorioTarefas</text><rect fill="#FFFFFF" filter="url(#fkuuxfuyz8vnf)" height="398.5156" style="stroke:#A80036;stroke-width:1.0;" width="10" x="57.5" y="99.6094"/><rect fill="#FFFFFF" filter="url(#fkuuxfuyz8vnf)" height="121.0547" style="stroke:#A80036;stroke-width:1.0;" width="10" x="409.5" y="121.9609"/><rect fill="#FFFFFF" filter="url(#fkuuxfuyz8vnf)" height="60.3516" style="stroke:#A80036;stroke-width:1.0;" width="10" x="409.5" y="298.7188"/><rect fill="#FFFFFF" filter="url(#fkuuxfuyz8vnf)" height="60.3516" style="stroke:#A80036;stroke-width:1.0;" width="10" x="409.5" y="421.7734"/><rect fill="#FFFFFF" filter="url(#fkuuxfuyz8vnf)" height="60.3516" style="stroke:#A80036;stroke-width:1.0;" width="10" x="618.5" y="152.3125"/><rect fill="#FFFFFF" filter="url(#fkuuxfuyz8vnf)" height="30" style="stroke:#A80036;stroke-width:1.0;" width="10" x="618.5" y="329.0703"/><rect fill="#FFFFFF" filter="url(#fkuuxfuyz8vnf)" height="30" style="stroke:#A80036;stroke-width:1.0;" width="10" x="618.5" y="452.125"/><rect fill="#FFFFFF" filter="url(#fkuuxfuyz8vnf)" height="30" style="stroke:#A80036;stroke-width:1.0;" width="10" x="827.5" y="182.6641"/><polygon fill="#A80036" points="397.5,117.9609,407.5,121.9609,397.5,125.9609,401.5,121.9609" style="stroke:#A80036;stroke-width:1.0;"/><line style="stroke:#A80036;stroke-width:1.0;" x1="67.5" x2="403.5" y1="121.9609" y2="121.9609"/><text fill="#000000" font-family="sans-serif" font-size="13" font-weight="bold" lengthAdjust="spacing" textLength="7" x="74.5" y="117.1045">1</text><text fill="#000000" font-family="sans-serif" font-size="13" lengthAdjust="spacing" textLength="312" x="85.5" y="117.1045">solicita consultar as tarefas pendentes ao colaborador</text><polygon fill="#A80036" points="606.5,148.3125,616.5,152.3125,606.5,156.3125,610.5,152.3125" style="stroke:#A80036;stroke-width:1.0;"/><line style="stroke:#A80036;stroke-width:1.0;" x1="419.5" x2="612.5" y1="152.3125" y2="152.3125"/><text fill="#000000" font-family="sans-serif" font-size="13" font-weight="bold" lengthAdjust="spacing" textLength="7" x="426.5" y="147.4561">2</text><text fill="#000000" font-family="sans-serif" font-size="13" lengthAdjust="spacing" textLength="169" x="437.5" y="147.4561">obterListaTarefasPendentes()</text><polygon fill="#A80036" points="815.5,178.6641,825.5,182.6641,815.5,186.6641,819.5,182.6641" style="stroke:#A80036;stroke-width:1.0;"/><line style="stroke:#A80036;stroke-width:1.0;" x1="628.5" x2="821.5" y1="182.6641" y2="182.6641"/><text fill="#000000" font-family="sans-serif" font-size="13" font-weight="bold" lengthAdjust="spacing" textLength="7" x="635.5" y="177.8076">3</text><text fill="#000000" font-family="sans-serif" font-size="13" lengthAdjust="spacing" textLength="169" x="646.5" y="177.8076">obterListaTarefasPendentes()</text><polygon fill="#A80036" points="78.5,239.0156,68.5,243.0156,78.5,247.0156,74.5,243.0156" style="stroke:#A80036;stroke-width:1.0;"/><line style="stroke:#A80036;stroke-width:1.0;stroke-dasharray:2.0,2.0;" x1="72.5" x2="413.5" y1="243.0156" y2="243.0156"/><text fill="#000000" font-family="sans-serif" font-size="13" font-weight="bold" lengthAdjust="spacing" textLength="7" x="84.5" y="238.1592">4</text><text fill="#000000" font-family="sans-serif" font-size="13" lengthAdjust="spacing" textLength="246" x="95.5" y="238.1592">apresenta uma lista das tarefas pendentes</text><path d="M10,258.0156 L75,258.0156 L75,266.0156 L65,276.0156 L10,276.0156 L10,258.0156 " fill="#EEEEEE" style="stroke:#000000;stroke-width:1.0;"/><rect fill="none" height="109.0547" style="stroke:#000000;stroke-width:2.0;" width="720.5" x="10" y="258.0156"/><text fill="#000000" font-family="sans-serif" font-size="13" font-weight="bold" lengthAdjust="spacing" textLength="20" x="25" y="272.5107">opt</text><polygon fill="#A80036" points="397.5,294.7188,407.5,298.7188,397.5,302.7188,401.5,298.7188" style="stroke:#A80036;stroke-width:1.0;"/><line style="stroke:#A80036;stroke-width:1.0;" x1="67.5" x2="403.5" y1="298.7188" y2="298.7188"/><text fill="#000000" font-family="sans-serif" font-size="13" font-weight="bold" lengthAdjust="spacing" textLength="7" x="74.5" y="293.8623">5</text><text fill="#000000" font-family="sans-serif" font-size="13" lengthAdjust="spacing" textLength="177" x="85.5" y="293.8623">pesquisa as tarefas pendentes</text><polygon fill="#A80036" points="606.5,325.0703,616.5,329.0703,606.5,333.0703,610.5,329.0703" style="stroke:#A80036;stroke-width:1.0;"/><line style="stroke:#A80036;stroke-width:1.0;" x1="419.5" x2="612.5" y1="329.0703" y2="329.0703"/><text fill="#000000" font-family="sans-serif" font-size="13" font-weight="bold" lengthAdjust="spacing" textLength="7" x="426.5" y="324.2139">6</text><text fill="#000000" font-family="sans-serif" font-size="13" lengthAdjust="spacing" textLength="99" x="437.5" y="324.2139">pesquisarTarefa()</text><path d="M10,381.0703 L75,381.0703 L75,389.0703 L65,399.0703 L10,399.0703 L10,381.0703 " fill="#EEEEEE" style="stroke:#000000;stroke-width:1.0;"/><rect fill="none" height="109.0547" style="stroke:#000000;stroke-width:2.0;" width="720.5" x="10" y="381.0703"/><text fill="#000000" font-family="sans-serif" font-size="13" font-weight="bold" lengthAdjust="spacing" textLength="20" x="25" y="395.5654">opt</text><polygon fill="#A80036" points="397.5,417.7734,407.5,421.7734,397.5,425.7734,401.5,421.7734" style="stroke:#A80036;stroke-width:1.0;"/><line style="stroke:#A80036;stroke-width:1.0;" x1="67.5" x2="403.5" y1="421.7734" y2="421.7734"/><text fill="#000000" font-family="sans-serif" font-size="13" font-weight="bold" lengthAdjust="spacing" textLength="7" x="74.5" y="416.917">7</text><text fill="#000000" font-family="sans-serif" font-size="13" lengthAdjust="spacing" textLength="168" x="85.5" y="416.917">ordenar as tarefas pendentes</text><polygon fill="#A80036" points="606.5,448.125,616.5,452.125,606.5,456.125,610.5,452.125" style="stroke:#A80036;stroke-width:1.0;"/><line style="stroke:#A80036;stroke-width:1.0;" x1="419.5" x2="612.5" y1="452.125" y2="452.125"/><text fill="#000000" font-family="sans-serif" font-size="13" font-weight="bold" lengthAdjust="spacing" textLength="7" x="426.5" y="447.2686">8</text><text fill="#000000" font-family="sans-serif" font-size="13" lengthAdjust="spacing" textLength="86" x="437.5" y="447.2686">ordenarTarefa()</text><!--MD5=[60422d7a8e4064b0753152805d67f40d]
@startuml

autonumber
actor "Colaborador" as colab

participant ":ConsultarTarefasUI" as ui
participant ":ConsultarTarefasController" as ctrl
participant ":RepositorioTarefas" as repo

activate colab

colab -> ui : solicita consultar as tarefas pendentes ao colaborador

activate ui

ui -> ctrl : obterListaTarefasPendentes()

activate ctrl

ctrl -> repo : obterListaTarefasPendentes()

activate repo

deactivate ctrl

deactivate repo

ui - -> colab : apresenta uma lista das tarefas pendentes

deactivate ui

opt

colab -> ui : pesquisa as tarefas pendentes

activate ui

ui -> ctrl : pesquisarTarefa()

activate ctrl

deactivate ui

deactivate ctrl

end

opt

colab -> ui : ordenar as tarefas pendentes

activate ui

ui -> ctrl : ordenarTarefa()

activate ctrl

deactivate ui

deactivate ctrl

end

@enduml

PlantUML version 1.2021.5(Sun Apr 25 12:20:28 BST 2021)
(GPL source distribution)
Java Runtime: OpenJDK Runtime Environment
JVM: Dynamic Code Evolution 64-Bit Server VM
Default Encoding: Cp1252
Language: pt
Country: PT
--></g></svg>