<?xml version="1.0" encoding="UTF-8" standalone="no"?><svg xmlns="http://www.w3.org/2000/svg" xmlns:xlink="http://www.w3.org/1999/xlink" contentScriptType="application/ecmascript" contentStyleType="text/css" height="820px" preserveAspectRatio="none" style="width:1323px;height:820px;" version="1.1" viewBox="0 0 1323 820" width="1323px" zoomAndPan="magnify"><defs><filter height="300%" id="f1njzh6w3g5buk" width="300%" x="-1" y="-1"><feGaussianBlur result="blurOut" stdDeviation="2.0"/><feColorMatrix in="blurOut" result="blurOut2" type="matrix" values="0 0 0 0 0 0 0 0 0 0 0 0 0 0 0 0 0 0 .4 0"/><feOffset dx="4.0" dy="4.0" in="blurOut2" result="blurOut3"/><feBlend in="SourceGraphic" in2="blurOut3" mode="normal"/></filter></defs><g><rect fill="#FFFFFF" filter="url(#f1njzh6w3g5buk)" height="625.9766" style="stroke:#A80036;stroke-width:1.0;" width="10" x="57.5" y="99.6094"/><rect fill="#FFFFFF" filter="url(#f1njzh6w3g5buk)" height="227.1094" style="stroke:#A80036;stroke-width:1.0;" width="10" x="409.5" y="121.9609"/><rect fill="#FFFFFF" filter="url(#f1njzh6w3g5buk)" height="121.0547" style="stroke:#A80036;stroke-width:1.0;" width="10" x="409.5" y="404.7734"/><rect fill="#FFFFFF" filter="url(#f1njzh6w3g5buk)" height="121.0547" style="stroke:#A80036;stroke-width:1.0;" width="10" x="409.5" y="588.5313"/><rect fill="#FFFFFF" filter="url(#f1njzh6w3g5buk)" height="196.7578" style="stroke:#A80036;stroke-width:1.0;" width="10" x="623.5" y="121.9609"/><rect fill="#FFFFFF" filter="url(#f1njzh6w3g5buk)" height="60.3516" style="stroke:#A80036;stroke-width:1.0;" width="10" x="623.5" y="435.125"/><rect fill="#FFFFFF" filter="url(#f1njzh6w3g5buk)" height="60.3516" style="stroke:#A80036;stroke-width:1.0;" width="10" x="623.5" y="618.8828"/><rect fill="#FFFFFF" filter="url(#f1njzh6w3g5buk)" height="136.4063" style="stroke:#A80036;stroke-width:1.0;" width="10" x="987.5" y="99.6094"/><rect fill="#FFFFFF" filter="url(#f1njzh6w3g5buk)" height="30" style="stroke:#A80036;stroke-width:1.0;" width="10" x="1182" y="288.7188"/><rect fill="#FFFFFF" filter="url(#f1njzh6w3g5buk)" height="30" style="stroke:#A80036;stroke-width:1.0;" width="10" x="1182" y="465.4766"/><rect fill="#FFFFFF" filter="url(#f1njzh6w3g5buk)" height="30" style="stroke:#A80036;stroke-width:1.0;" width="10" x="1182" y="649.2344"/><rect fill="#FFFFFF" filter="url(#f1njzh6w3g5buk)" height="61.7031" style="stroke:#000000;stroke-width:2.0;" width="471" x="521.5" y="167.3125"/><rect fill="#FFFFFF" filter="url(#f1njzh6w3g5buk)" height="169.7578" style="stroke:#000000;stroke-width:2.0;" width="1299.5" x="10" y="364.0703"/><rect fill="#FFFFFF" filter="url(#f1njzh6w3g5buk)" height="169.7578" style="stroke:#000000;stroke-width:2.0;" width="1299.5" x="10" y="547.8281"/><line style="stroke:#A80036;stroke-width:1.0;stroke-dasharray:5.0,5.0;" x1="62" x2="62" y1="89.6094" y2="734.5859"/><line style="stroke:#A80036;stroke-width:1.0;stroke-dasharray:5.0,5.0;" x1="414.5" x2="414.5" y1="89.6094" y2="734.5859"/><line style="stroke:#A80036;stroke-width:1.0;stroke-dasharray:5.0,5.0;" x1="628.5" x2="628.5" y1="89.6094" y2="734.5859"/><line style="stroke:#A80036;stroke-width:1.0;stroke-dasharray:5.0,5.0;" x1="992.5" x2="992.5" y1="89.6094" y2="734.5859"/><line style="stroke:#A80036;stroke-width:1.0;stroke-dasharray:5.0,5.0;" x1="1186.5" x2="1186.5" y1="89.6094" y2="734.5859"/><text fill="#000000" font-family="sans-serif" font-size="14" lengthAdjust="spacing" textLength="79" x="20" y="86.5332">Colaborador</text><ellipse cx="62.5" cy="15" fill="#FEFECE" filter="url(#f1njzh6w3g5buk)" rx="8" ry="8" style="stroke:#A80036;stroke-width:2.0;"/><path d="M62.5,23 L62.5,50 M49.5,31 L75.5,31 M62.5,50 L49.5,65 M62.5,50 L75.5,65 " fill="none" filter="url(#f1njzh6w3g5buk)" style="stroke:#A80036;stroke-width:2.0;"/><text fill="#000000" font-family="sans-serif" font-size="14" lengthAdjust="spacing" textLength="79" x="20" y="748.1191">Colaborador</text><ellipse cx="62.5" cy="761.1953" fill="#FEFECE" filter="url(#f1njzh6w3g5buk)" rx="8" ry="8" style="stroke:#A80036;stroke-width:2.0;"/><path d="M62.5,769.1953 L62.5,796.1953 M49.5,777.1953 L75.5,777.1953 M62.5,796.1953 L49.5,811.1953 M62.5,796.1953 L75.5,811.1953 " fill="none" filter="url(#f1njzh6w3g5buk)" style="stroke:#A80036;stroke-width:2.0;"/><rect fill="#FEFECE" filter="url(#f1njzh6w3g5buk)" height="31.6094" style="stroke:#A80036;stroke-width:1.5;" width="140" x="342.5" y="53"/><text fill="#000000" font-family="sans-serif" font-size="14" lengthAdjust="spacing" textLength="126" x="349.5" y="74.5332">:ConsultarTarefasUI</text><rect fill="#FEFECE" filter="url(#f1njzh6w3g5buk)" height="31.6094" style="stroke:#A80036;stroke-width:1.5;" width="140" x="342.5" y="733.5859"/><text fill="#000000" font-family="sans-serif" font-size="14" lengthAdjust="spacing" textLength="126" x="349.5" y="755.1191">:ConsultarTarefasUI</text><rect fill="#FEFECE" filter="url(#f1njzh6w3g5buk)" height="31.6094" style="stroke:#A80036;stroke-width:1.5;" width="190" x="531.5" y="53"/><text fill="#000000" font-family="sans-serif" font-size="14" lengthAdjust="spacing" textLength="176" x="538.5" y="74.5332">:ConsultarTarefasController</text><rect fill="#FEFECE" filter="url(#f1njzh6w3g5buk)" height="31.6094" style="stroke:#A80036;stroke-width:1.5;" width="190" x="531.5" y="733.5859"/><text fill="#000000" font-family="sans-serif" font-size="14" lengthAdjust="spacing" textLength="176" x="538.5" y="755.1191">:ConsultarTarefasController</text><rect fill="#FEFECE" filter="url(#f1njzh6w3g5buk)" height="31.6094" style="stroke:#A80036;stroke-width:1.5;" width="140" x="920.5" y="53"/><text fill="#000000" font-family="sans-serif" font-size="14" lengthAdjust="spacing" textLength="126" x="927.5" y="74.5332">:PersistenceContext</text><rect fill="#FEFECE" filter="url(#f1njzh6w3g5buk)" height="31.6094" style="stroke:#A80036;stroke-width:1.5;" width="140" x="920.5" y="733.5859"/><text fill="#000000" font-family="sans-serif" font-size="14" lengthAdjust="spacing" textLength="126" x="927.5" y="755.1191">:PersistenceContext</text><rect fill="#FEFECE" filter="url(#f1njzh6w3g5buk)" height="31.6094" style="stroke:#A80036;stroke-width:1.5;" width="221" x="1074.5" y="53"/><text fill="#000000" font-family="sans-serif" font-size="14" lengthAdjust="spacing" textLength="207" x="1081.5" y="74.5332">repoTarefas :RepositorioTarefas</text><rect fill="#FEFECE" filter="url(#f1njzh6w3g5buk)" height="31.6094" style="stroke:#A80036;stroke-width:1.5;" width="221" x="1074.5" y="733.5859"/><text fill="#000000" font-family="sans-serif" font-size="14" lengthAdjust="spacing" textLength="207" x="1081.5" y="755.1191">repoTarefas :RepositorioTarefas</text><rect fill="#FFFFFF" filter="url(#f1njzh6w3g5buk)" height="625.9766" style="stroke:#A80036;stroke-width:1.0;" width="10" x="57.5" y="99.6094"/><rect fill="#FFFFFF" filter="url(#f1njzh6w3g5buk)" height="227.1094" style="stroke:#A80036;stroke-width:1.0;" width="10" x="409.5" y="121.9609"/><rect fill="#FFFFFF" filter="url(#f1njzh6w3g5buk)" height="121.0547" style="stroke:#A80036;stroke-width:1.0;" width="10" x="409.5" y="404.7734"/><rect fill="#FFFFFF" filter="url(#f1njzh6w3g5buk)" height="121.0547" style="stroke:#A80036;stroke-width:1.0;" width="10" x="409.5" y="588.5313"/><rect fill="#FFFFFF" filter="url(#f1njzh6w3g5buk)" height="196.7578" style="stroke:#A80036;stroke-width:1.0;" width="10" x="623.5" y="121.9609"/><rect fill="#FFFFFF" filter="url(#f1njzh6w3g5buk)" height="60.3516" style="stroke:#A80036;stroke-width:1.0;" width="10" x="623.5" y="435.125"/><rect fill="#FFFFFF" filter="url(#f1njzh6w3g5buk)" height="60.3516" style="stroke:#A80036;stroke-width:1.0;" width="10" x="623.5" y="618.8828"/><rect fill="#FFFFFF" filter="url(#f1njzh6w3g5buk)" height="136.4063" style="stroke:#A80036;stroke-width:1.0;" width="10" x="987.5" y="99.6094"/><rect fill="#FFFFFF" filter="url(#f1njzh6w3g5buk)" height="30" style="stroke:#A80036;stroke-width:1.0;" width="10" x="1182" y="288.7188"/><rect fill="#FFFFFF" filter="url(#f1njzh6w3g5buk)" height="30" style="stroke:#A80036;stroke-width:1.0;" width="10" x="1182" y="465.4766"/><rect fill="#FFFFFF" filter="url(#f1njzh6w3g5buk)" height="30" style="stroke:#A80036;stroke-width:1.0;" width="10" x="1182" y="649.2344"/><polygon fill="#A80036" points="397.5,117.9609,407.5,121.9609,397.5,125.9609,401.5,121.9609" style="stroke:#A80036;stroke-width:1.0;"/><line style="stroke:#A80036;stroke-width:1.0;" x1="67.5" x2="403.5" y1="121.9609" y2="121.9609"/><text fill="#000000" font-family="sans-serif" font-size="13" font-weight="bold" lengthAdjust="spacing" textLength="7" x="74.5" y="117.1045">1</text><text fill="#000000" font-family="sans-serif" font-size="13" lengthAdjust="spacing" textLength="312" x="85.5" y="117.1045">solicita consultar as tarefas pendentes ao colaborador</text><polygon fill="#A80036" points="975.5,148.3125,985.5,152.3125,975.5,156.3125,979.5,152.3125" style="stroke:#A80036;stroke-width:1.0;"/><line style="stroke:#A80036;stroke-width:1.0;" x1="633.5" x2="981.5" y1="152.3125" y2="152.3125"/><text fill="#000000" font-family="sans-serif" font-size="13" font-weight="bold" lengthAdjust="spacing" textLength="7" x="640.5" y="147.4561">2</text><text fill="#000000" font-family="sans-serif" font-size="13" lengthAdjust="spacing" textLength="214" x="651.5" y="147.4561">repoColab = colaboradorRepositorio()</text><path d="M521.5,167.3125 L592.5,167.3125 L592.5,175.3125 L582.5,185.3125 L521.5,185.3125 L521.5,167.3125 " fill="#EEEEEE" style="stroke:#000000;stroke-width:1.0;"/><rect fill="none" height="61.7031" style="stroke:#000000;stroke-width:2.0;" width="471" x="521.5" y="167.3125"/><text fill="#000000" font-family="sans-serif" font-size="13" font-weight="bold" lengthAdjust="spacing" textLength="26" x="536.5" y="181.8076">sd if</text><line style="stroke:#A80036;stroke-width:1.0;" x1="633.5" x2="675.5" y1="208.0156" y2="208.0156"/><line style="stroke:#A80036;stroke-width:1.0;" x1="675.5" x2="675.5" y1="208.0156" y2="221.0156"/><line style="stroke:#A80036;stroke-width:1.0;" x1="634.5" x2="675.5" y1="221.0156" y2="221.0156"/><polygon fill="#A80036" points="644.5,217.0156,634.5,221.0156,644.5,225.0156,640.5,221.0156" style="stroke:#A80036;stroke-width:1.0;"/><text fill="#000000" font-family="sans-serif" font-size="13" font-weight="bold" lengthAdjust="spacing" textLength="7" x="640.5" y="203.1592">3</text><text fill="#000000" font-family="sans-serif" font-size="13" lengthAdjust="spacing" textLength="329" x="651.5" y="203.1592">SystemUser sysUser = userSession.authenticatedUser()</text><polygon fill="#A80036" points="611.5,254.3672,621.5,258.3672,611.5,262.3672,615.5,258.3672" style="stroke:#A80036;stroke-width:1.0;"/><line style="stroke:#A80036;stroke-width:1.0;" x1="419.5" x2="617.5" y1="258.3672" y2="258.3672"/><text fill="#000000" font-family="sans-serif" font-size="13" font-weight="bold" lengthAdjust="spacing" textLength="7" x="426.5" y="253.5107">4</text><text fill="#000000" font-family="sans-serif" font-size="13" lengthAdjust="spacing" textLength="169" x="437.5" y="253.5107">obterListaTarefasPendentes()</text><polygon fill="#A80036" points="1170,284.7188,1180,288.7188,1170,292.7188,1174,288.7188" style="stroke:#A80036;stroke-width:1.0;"/><line style="stroke:#A80036;stroke-width:1.0;" x1="633.5" x2="1176" y1="288.7188" y2="288.7188"/><text fill="#000000" font-family="sans-serif" font-size="13" font-weight="bold" lengthAdjust="spacing" textLength="7" x="640.5" y="283.8623">5</text><text fill="#000000" font-family="sans-serif" font-size="13" lengthAdjust="spacing" textLength="274" x="651.5" y="283.8623">listTarefasPend = obterListaTarefasPendentes()</text><polygon fill="#A80036" points="78.5,345.0703,68.5,349.0703,78.5,353.0703,74.5,349.0703" style="stroke:#A80036;stroke-width:1.0;"/><line style="stroke:#A80036;stroke-width:1.0;stroke-dasharray:2.0,2.0;" x1="72.5" x2="413.5" y1="349.0703" y2="349.0703"/><text fill="#000000" font-family="sans-serif" font-size="13" font-weight="bold" lengthAdjust="spacing" textLength="7" x="84.5" y="344.2139">6</text><text fill="#000000" font-family="sans-serif" font-size="13" lengthAdjust="spacing" textLength="246" x="95.5" y="344.2139">apresenta uma lista das tarefas pendentes</text><path d="M10,364.0703 L75,364.0703 L75,372.0703 L65,382.0703 L10,382.0703 L10,364.0703 " fill="#EEEEEE" style="stroke:#000000;stroke-width:1.0;"/><rect fill="none" height="169.7578" style="stroke:#000000;stroke-width:2.0;" width="1299.5" x="10" y="364.0703"/><text fill="#000000" font-family="sans-serif" font-size="13" font-weight="bold" lengthAdjust="spacing" textLength="20" x="25" y="378.5654">opt</text><polygon fill="#A80036" points="397.5,400.7734,407.5,404.7734,397.5,408.7734,401.5,404.7734" style="stroke:#A80036;stroke-width:1.0;"/><line style="stroke:#A80036;stroke-width:1.0;" x1="67.5" x2="403.5" y1="404.7734" y2="404.7734"/><text fill="#000000" font-family="sans-serif" font-size="13" font-weight="bold" lengthAdjust="spacing" textLength="7" x="74.5" y="399.917">7</text><text fill="#000000" font-family="sans-serif" font-size="13" lengthAdjust="spacing" textLength="223" x="85.5" y="399.917">solicita um filtro nas tarefas pendentes</text><polygon fill="#A80036" points="611.5,431.125,621.5,435.125,611.5,439.125,615.5,435.125" style="stroke:#A80036;stroke-width:1.0;"/><line style="stroke:#A80036;stroke-width:1.0;" x1="419.5" x2="617.5" y1="435.125" y2="435.125"/><text fill="#000000" font-family="sans-serif" font-size="13" font-weight="bold" lengthAdjust="spacing" textLength="7" x="426.5" y="430.2686">8</text><text fill="#000000" font-family="sans-serif" font-size="13" lengthAdjust="spacing" textLength="71" x="437.5" y="430.2686">filtrarTarefa()</text><polygon fill="#A80036" points="1170,461.4766,1180,465.4766,1170,469.4766,1174,465.4766" style="stroke:#A80036;stroke-width:1.0;"/><line style="stroke:#A80036;stroke-width:1.0;" x1="633.5" x2="1176" y1="465.4766" y2="465.4766"/><text fill="#000000" font-family="sans-serif" font-size="13" font-weight="bold" lengthAdjust="spacing" textLength="7" x="640.5" y="460.6201">9</text><text fill="#000000" font-family="sans-serif" font-size="13" lengthAdjust="spacing" textLength="71" x="651.5" y="460.6201">filtrarTarefa()</text><polygon fill="#A80036" points="78.5,521.8281,68.5,525.8281,78.5,529.8281,74.5,525.8281" style="stroke:#A80036;stroke-width:1.0;"/><line style="stroke:#A80036;stroke-width:1.0;stroke-dasharray:2.0,2.0;" x1="72.5" x2="413.5" y1="525.8281" y2="525.8281"/><text fill="#000000" font-family="sans-serif" font-size="13" font-weight="bold" lengthAdjust="spacing" textLength="14" x="84.5" y="520.9717">10</text><text fill="#000000" font-family="sans-serif" font-size="13" lengthAdjust="spacing" textLength="253" x="102.5" y="520.9717">apresenta a filtragem das tarefas pendentes</text><path d="M10,547.8281 L75,547.8281 L75,555.8281 L65,565.8281 L10,565.8281 L10,547.8281 " fill="#EEEEEE" style="stroke:#000000;stroke-width:1.0;"/><rect fill="none" height="169.7578" style="stroke:#000000;stroke-width:2.0;" width="1299.5" x="10" y="547.8281"/><text fill="#000000" font-family="sans-serif" font-size="13" font-weight="bold" lengthAdjust="spacing" textLength="20" x="25" y="562.3232">opt</text><polygon fill="#A80036" points="397.5,584.5313,407.5,588.5313,397.5,592.5313,401.5,588.5313" style="stroke:#A80036;stroke-width:1.0;"/><line style="stroke:#A80036;stroke-width:1.0;" x1="67.5" x2="403.5" y1="588.5313" y2="588.5313"/><text fill="#000000" font-family="sans-serif" font-size="13" font-weight="bold" lengthAdjust="spacing" textLength="14" x="74.5" y="583.6748">11</text><text fill="#000000" font-family="sans-serif" font-size="13" lengthAdjust="spacing" textLength="266" x="92.5" y="583.6748">solicita uma ordenação das tarefas pendentes</text><polygon fill="#A80036" points="611.5,614.8828,621.5,618.8828,611.5,622.8828,615.5,618.8828" style="stroke:#A80036;stroke-width:1.0;"/><line style="stroke:#A80036;stroke-width:1.0;" x1="419.5" x2="617.5" y1="618.8828" y2="618.8828"/><text fill="#000000" font-family="sans-serif" font-size="13" font-weight="bold" lengthAdjust="spacing" textLength="14" x="426.5" y="614.0264">12</text><text fill="#000000" font-family="sans-serif" font-size="13" lengthAdjust="spacing" textLength="86" x="444.5" y="614.0264">ordenarTarefa()</text><polygon fill="#A80036" points="1170,645.2344,1180,649.2344,1170,653.2344,1174,649.2344" style="stroke:#A80036;stroke-width:1.0;"/><line style="stroke:#A80036;stroke-width:1.0;" x1="633.5" x2="1176" y1="649.2344" y2="649.2344"/><text fill="#000000" font-family="sans-serif" font-size="13" font-weight="bold" lengthAdjust="spacing" textLength="14" x="640.5" y="644.3779">13</text><text fill="#000000" font-family="sans-serif" font-size="13" lengthAdjust="spacing" textLength="86" x="658.5" y="644.3779">ordenarTarefa()</text><polygon fill="#A80036" points="78.5,705.5859,68.5,709.5859,78.5,713.5859,74.5,709.5859" style="stroke:#A80036;stroke-width:1.0;"/><line style="stroke:#A80036;stroke-width:1.0;stroke-dasharray:2.0,2.0;" x1="72.5" x2="413.5" y1="709.5859" y2="709.5859"/><text fill="#000000" font-family="sans-serif" font-size="13" font-weight="bold" lengthAdjust="spacing" textLength="14" x="84.5" y="704.7295">14</text><text fill="#000000" font-family="sans-serif" font-size="13" lengthAdjust="spacing" textLength="285" x="102.5" y="704.7295">apresenta a lista das tarefas pendentes ordenada</text><!--MD5=[c8af32779b1d94fd0ae84715f9d698f0]
@startuml

autonumber
actor "Colaborador" as colab

participant ":ConsultarTarefasUI" as ui
participant ":ConsultarTarefasController" as ctrl
participant ":PersistenceContext" as persistence
participant "repoTarefas :RepositorioTarefas" as repo


activate colab

colab -> ui : solicita consultar as tarefas pendentes ao colaborador

activate ui

activate ctrl

ctrl -> persistence : repoColab = colaboradorRepositorio()

group sd if

ctrl -> ctrl : SystemUser sysUser = userSession.authenticatedUser()

end

activate persistence

deactivate persistence

ui -> ctrl : obterListaTarefasPendentes()

ctrl -> repo : listTarefasPend = obterListaTarefasPendentes()

activate repo

deactivate ctrl

deactivate repo

ui - -> colab : apresenta uma lista das tarefas pendentes

deactivate ui

opt

colab -> ui : solicita um filtro nas tarefas pendentes

activate ui

ui -> ctrl : filtrarTarefa()

activate ctrl

ctrl -> repo : filtrarTarefa()

activate repo

deactivate repo

deactivate ctrl

ui - -> colab : apresenta a filtragem das tarefas pendentes

deactivate ui

deactivate ui

end

opt

colab -> ui : solicita uma ordenação das tarefas pendentes

activate ui

ui -> ctrl : ordenarTarefa()

activate ctrl

ctrl -> repo : ordenarTarefa()

activate repo

deactivate repo

deactivate ctrl

ui - -> colab : apresenta a lista das tarefas pendentes ordenada

deactivate ui

end

@enduml

PlantUML version 1.2021.5(Sun Apr 25 12:20:28 BST 2021)
(GPL source distribution)
Java Runtime: OpenJDK Runtime Environment
JVM: Dynamic Code Evolution 64-Bit Server VM
Default Encoding: Cp1252
Language: pt
Country: PT
--></g></svg>