<?xml version="1.0" encoding="UTF-8" standalone="no"?><svg xmlns="http://www.w3.org/2000/svg" xmlns:xlink="http://www.w3.org/1999/xlink" contentScriptType="application/ecmascript" contentStyleType="text/css" height="628px" preserveAspectRatio="none" style="width:1046px;height:628px;" version="1.1" viewBox="0 0 1046 628" width="1046px" zoomAndPan="magnify"><defs><filter height="300%" id="fugnxmwstt9d6" width="300%" x="-1" y="-1"><feGaussianBlur result="blurOut" stdDeviation="2.0"/><feColorMatrix in="blurOut" result="blurOut2" type="matrix" values="0 0 0 0 0 0 0 0 0 0 0 0 0 0 0 0 0 0 .4 0"/><feOffset dx="4.0" dy="4.0" in="blurOut2" result="blurOut3"/><feBlend in="SourceGraphic" in2="blurOut3" mode="normal"/></filter></defs><g><!--MD5=[fdd143688dd4c22e6f2ee475119423ce]
class EspecificarColaboradorUI--><rect codeLine="3" fill="#FEFECE" filter="url(#fugnxmwstt9d6)" height="48" id="EspecificarColaboradorUI" style="stroke:#A80036;stroke-width:1.5;" width="174" x="555.5" y="7"/><ellipse cx="570.5" cy="23" fill="#ADD1B2" rx="11" ry="11" style="stroke:#A80036;stroke-width:1.0;"/><path d="M572.5,19.5 Q572.7031,19 572.9375,18.75 Q573.1719,18.5 573.4375,18.5 Q573.9063,18.5 574.2031,18.7813 Q574.5,19.0625 574.5,19.7188 L574.5,21.2813 Q574.5,21.9375 574.2188,22.2188 Q573.9375,22.5 573.5,22.5 Q573.1094,22.5 572.8594,22.3281 Q572.6094,22.1563 572.5,21.7031 Q572.4531,21.3906 572.2813,21.2188 Q571.9688,20.8906 571.4063,20.7031 Q570.8438,20.5 570.2813,20.5 Q569.5781,20.5 568.9844,20.7813 Q568.4063,21.0625 567.9531,21.6875 Q567.5,22.3125 567.5,23.1719 L567.5,24.0938 Q567.5,25.125 568.3438,25.8125 Q569.1875,26.5 570.6875,26.5 Q571.5781,26.5 572.2031,26.2969 Q572.5625,26.1875 572.9688,25.8281 Q573.2344,25.625 573.375,25.5625 Q573.5156,25.5 573.6875,25.5 Q574.0156,25.5 574.25,25.7656 Q574.5,26.0156 574.5,26.375 Q574.5,26.7188 574.1563,27.125 Q573.6563,27.7188 572.8594,28.0469 Q571.8125,28.5 570.5313,28.5 Q569.0313,28.5 567.8281,27.9063 Q566.8594,27.4375 566.1719,26.4219 Q565.5,25.4063 565.5,24.2031 L565.5,23.1094 Q565.5,21.8594 566.0938,20.7656 Q566.7031,19.6719 567.75,19.0938 Q568.8125,18.5 570,18.5 Q570.7188,18.5 571.3438,18.75 Q571.9688,19 572.5,19.5 Z " fill="#000000"/><text fill="#000000" font-family="sans-serif" font-size="12" lengthAdjust="spacing" textLength="142" x="584.5" y="27.9102">EspecificarColaboradorUI</text><line style="stroke:#A80036;stroke-width:1.5;" x1="556.5" x2="728.5" y1="39" y2="39"/><line style="stroke:#A80036;stroke-width:1.5;" x1="556.5" x2="728.5" y1="47" y2="47"/><!--MD5=[ad1e0dfb7967d80be5dad4c9388df9ec]
class EspecificarColaboradorController--><rect codeLine="6" fill="#FEFECE" filter="url(#fugnxmwstt9d6)" height="89.5078" id="EspecificarColaboradorController" style="stroke:#A80036;stroke-width:1.5;" width="779" x="253" y="115"/><ellipse cx="546.25" cy="131" fill="#ADD1B2" rx="11" ry="11" style="stroke:#A80036;stroke-width:1.0;"/><path d="M548.25,127.5 Q548.4531,127 548.6875,126.75 Q548.9219,126.5 549.1875,126.5 Q549.6563,126.5 549.9531,126.7813 Q550.25,127.0625 550.25,127.7188 L550.25,129.2813 Q550.25,129.9375 549.9688,130.2188 Q549.6875,130.5 549.25,130.5 Q548.8594,130.5 548.6094,130.3281 Q548.3594,130.1563 548.25,129.7031 Q548.2031,129.3906 548.0313,129.2188 Q547.7188,128.8906 547.1563,128.7031 Q546.5938,128.5 546.0313,128.5 Q545.3281,128.5 544.7344,128.7813 Q544.1563,129.0625 543.7031,129.6875 Q543.25,130.3125 543.25,131.1719 L543.25,132.0938 Q543.25,133.125 544.0938,133.8125 Q544.9375,134.5 546.4375,134.5 Q547.3281,134.5 547.9531,134.2969 Q548.3125,134.1875 548.7188,133.8281 Q548.9844,133.625 549.125,133.5625 Q549.2656,133.5 549.4375,133.5 Q549.7656,133.5 550,133.7656 Q550.25,134.0156 550.25,134.375 Q550.25,134.7188 549.9063,135.125 Q549.4063,135.7188 548.6094,136.0469 Q547.5625,136.5 546.2813,136.5 Q544.7813,136.5 543.5781,135.9063 Q542.6094,135.4375 541.9219,134.4219 Q541.25,133.4063 541.25,132.2031 L541.25,131.1094 Q541.25,129.8594 541.8438,128.7656 Q542.4531,127.6719 543.5,127.0938 Q544.5625,126.5 545.75,126.5 Q546.4688,126.5 547.0938,126.75 Q547.7188,127 548.25,127.5 Z " fill="#000000"/><text fill="#000000" font-family="sans-serif" font-size="12" lengthAdjust="spacing" textLength="184" x="566.75" y="135.9102">EspecificarColaboradorController</text><line style="stroke:#A80036;stroke-width:1.5;" x1="254" x2="1031" y1="147" y2="147"/><line style="stroke:#A80036;stroke-width:1.5;" x1="254" x2="1031" y1="155" y2="155"/><text fill="#000000" font-family="sans-serif" font-size="11" lengthAdjust="spacing" textLength="767" x="259" y="170.4189">+novoColaborador(nomeCurto, nomeCompleto, numMecanografico, localResidencia, email, nrContacto, password, funcao, dataNascimento, colabResponsavel)</text><text fill="#000000" font-family="sans-serif" font-size="11" lengthAdjust="spacing" textLength="100" x="259" y="184.2549">+obterListaEquipas()</text><text fill="#000000" font-family="sans-serif" font-size="11" lengthAdjust="spacing" textLength="106" x="259" y="198.0908">+registaColaborador()</text><!--MD5=[31b9c64e5635120c64042ad4e11560e0]
class RepositorioColaborador--><rect codeLine="12" fill="#FEFECE" filter="url(#fugnxmwstt9d6)" height="103.3438" id="RepositorioColaborador" style="stroke:#A80036;stroke-width:1.5;" width="779" x="7" y="265"/><ellipse cx="325.75" cy="281" fill="#ADD1B2" rx="11" ry="11" style="stroke:#A80036;stroke-width:1.0;"/><path d="M327.75,277.5 Q327.9531,277 328.1875,276.75 Q328.4219,276.5 328.6875,276.5 Q329.1563,276.5 329.4531,276.7813 Q329.75,277.0625 329.75,277.7188 L329.75,279.2813 Q329.75,279.9375 329.4688,280.2188 Q329.1875,280.5 328.75,280.5 Q328.3594,280.5 328.1094,280.3281 Q327.8594,280.1563 327.75,279.7031 Q327.7031,279.3906 327.5313,279.2188 Q327.2188,278.8906 326.6563,278.7031 Q326.0938,278.5 325.5313,278.5 Q324.8281,278.5 324.2344,278.7813 Q323.6563,279.0625 323.2031,279.6875 Q322.75,280.3125 322.75,281.1719 L322.75,282.0938 Q322.75,283.125 323.5938,283.8125 Q324.4375,284.5 325.9375,284.5 Q326.8281,284.5 327.4531,284.2969 Q327.8125,284.1875 328.2188,283.8281 Q328.4844,283.625 328.625,283.5625 Q328.7656,283.5 328.9375,283.5 Q329.2656,283.5 329.5,283.7656 Q329.75,284.0156 329.75,284.375 Q329.75,284.7188 329.4063,285.125 Q328.9063,285.7188 328.1094,286.0469 Q327.0625,286.5 325.7813,286.5 Q324.2813,286.5 323.0781,285.9063 Q322.1094,285.4375 321.4219,284.4219 Q320.75,283.4063 320.75,282.2031 L320.75,281.1094 Q320.75,279.8594 321.3438,278.7656 Q321.9531,277.6719 323,277.0938 Q324.0625,276.5 325.25,276.5 Q325.9688,276.5 326.5938,276.75 Q327.2188,277 327.75,277.5 Z " fill="#000000"/><text fill="#000000" font-family="sans-serif" font-size="12" lengthAdjust="spacing" textLength="133" x="346.25" y="285.9102">RepositorioColaborador</text><line style="stroke:#A80036;stroke-width:1.5;" x1="8" x2="785" y1="297" y2="297"/><line style="stroke:#A80036;stroke-width:1.5;" x1="8" x2="785" y1="305" y2="305"/><text fill="#000000" font-family="sans-serif" font-size="11" lengthAdjust="spacing" textLength="767" x="13" y="320.4189">+novoColaborador(nomeCurto, nomeCompleto, numMecanografico, localResidencia, email, nrContacto, password, funcao, dataNascimento, colabResponsavel)</text><text fill="#000000" font-family="sans-serif" font-size="11" lengthAdjust="spacing" textLength="132" x="13" y="334.2549">+registaColaborador(colab)</text><text fill="#000000" font-family="sans-serif" font-size="11" lengthAdjust="spacing" textLength="127" x="13" y="348.0908">+validaColaborador(colab)</text><text fill="#000000" font-family="sans-serif" font-size="11" lengthAdjust="spacing" textLength="117" x="13" y="361.9268">+criaColaborador(colab)</text><!--MD5=[a27c879ccd89be343cda9170b9ba4f77]
class RepositorioEquipa--><rect codeLine="19" fill="#FEFECE" filter="url(#fugnxmwstt9d6)" height="61.8359" id="RepositorioEquipa" style="stroke:#A80036;stroke-width:1.5;" width="135" x="821" y="285.5"/><ellipse cx="836" cy="301.5" fill="#ADD1B2" rx="11" ry="11" style="stroke:#A80036;stroke-width:1.0;"/><path d="M838,298 Q838.2031,297.5 838.4375,297.25 Q838.6719,297 838.9375,297 Q839.4063,297 839.7031,297.2813 Q840,297.5625 840,298.2188 L840,299.7813 Q840,300.4375 839.7188,300.7188 Q839.4375,301 839,301 Q838.6094,301 838.3594,300.8281 Q838.1094,300.6563 838,300.2031 Q837.9531,299.8906 837.7813,299.7188 Q837.4688,299.3906 836.9063,299.2031 Q836.3438,299 835.7813,299 Q835.0781,299 834.4844,299.2813 Q833.9063,299.5625 833.4531,300.1875 Q833,300.8125 833,301.6719 L833,302.5938 Q833,303.625 833.8438,304.3125 Q834.6875,305 836.1875,305 Q837.0781,305 837.7031,304.7969 Q838.0625,304.6875 838.4688,304.3281 Q838.7344,304.125 838.875,304.0625 Q839.0156,304 839.1875,304 Q839.5156,304 839.75,304.2656 Q840,304.5156 840,304.875 Q840,305.2188 839.6563,305.625 Q839.1563,306.2188 838.3594,306.5469 Q837.3125,307 836.0313,307 Q834.5313,307 833.3281,306.4063 Q832.3594,305.9375 831.6719,304.9219 Q831,303.9063 831,302.7031 L831,301.6094 Q831,300.3594 831.5938,299.2656 Q832.2031,298.1719 833.25,297.5938 Q834.3125,297 835.5,297 Q836.2188,297 836.8438,297.25 Q837.4688,297.5 838,298 Z " fill="#000000"/><text fill="#000000" font-family="sans-serif" font-size="12" lengthAdjust="spacing" textLength="103" x="850" y="306.4102">RepositorioEquipa</text><line style="stroke:#A80036;stroke-width:1.5;" x1="822" x2="955" y1="317.5" y2="317.5"/><line style="stroke:#A80036;stroke-width:1.5;" x1="822" x2="955" y1="325.5" y2="325.5"/><text fill="#000000" font-family="sans-serif" font-size="11" lengthAdjust="spacing" textLength="100" x="827" y="340.9189">+obterListaEquipas()</text><!--MD5=[ac8682ea5466d223e49472789fb200d2]
class Colaborador--><rect codeLine="23" fill="#FEFECE" filter="url(#fugnxmwstt9d6)" height="186.3594" id="Colaborador" style="stroke:#A80036;stroke-width:1.5;" width="756" x="18.5" y="428"/><ellipse cx="357.75" cy="444" fill="#ADD1B2" rx="11" ry="11" style="stroke:#A80036;stroke-width:1.0;"/><path d="M359.75,440.5 Q359.9531,440 360.1875,439.75 Q360.4219,439.5 360.6875,439.5 Q361.1563,439.5 361.4531,439.7813 Q361.75,440.0625 361.75,440.7188 L361.75,442.2813 Q361.75,442.9375 361.4688,443.2188 Q361.1875,443.5 360.75,443.5 Q360.3594,443.5 360.1094,443.3281 Q359.8594,443.1563 359.75,442.7031 Q359.7031,442.3906 359.5313,442.2188 Q359.2188,441.8906 358.6563,441.7031 Q358.0938,441.5 357.5313,441.5 Q356.8281,441.5 356.2344,441.7813 Q355.6563,442.0625 355.2031,442.6875 Q354.75,443.3125 354.75,444.1719 L354.75,445.0938 Q354.75,446.125 355.5938,446.8125 Q356.4375,447.5 357.9375,447.5 Q358.8281,447.5 359.4531,447.2969 Q359.8125,447.1875 360.2188,446.8281 Q360.4844,446.625 360.625,446.5625 Q360.7656,446.5 360.9375,446.5 Q361.2656,446.5 361.5,446.7656 Q361.75,447.0156 361.75,447.375 Q361.75,447.7188 361.4063,448.125 Q360.9063,448.7188 360.1094,449.0469 Q359.0625,449.5 357.7813,449.5 Q356.2813,449.5 355.0781,448.9063 Q354.1094,448.4375 353.4219,447.4219 Q352.75,446.4063 352.75,445.2031 L352.75,444.1094 Q352.75,442.8594 353.3438,441.7656 Q353.9531,440.6719 355,440.0938 Q356.0625,439.5 357.25,439.5 Q357.9688,439.5 358.5938,439.75 Q359.2188,440 359.75,440.5 Z " fill="#000000"/><text fill="#000000" font-family="sans-serif" font-size="12" lengthAdjust="spacing" textLength="69" x="378.25" y="448.9102">Colaborador</text><line style="stroke:#A80036;stroke-width:1.5;" x1="19.5" x2="773.5" y1="460" y2="460"/><text fill="#000000" font-family="sans-serif" font-size="11" lengthAdjust="spacing" textLength="87" x="24.5" y="475.4189">-String numeCurto</text><text fill="#000000" font-family="sans-serif" font-size="11" lengthAdjust="spacing" textLength="105" x="24.5" y="489.2549">-String nomeCompleto</text><text fill="#000000" font-family="sans-serif" font-size="11" lengthAdjust="spacing" textLength="210" x="24.5" y="503.0908">-MecanographicNumber numMecanografico</text><text fill="#000000" font-family="sans-serif" font-size="11" lengthAdjust="spacing" textLength="110" x="24.5" y="516.9268">-String localResidencia</text><text fill="#000000" font-family="sans-serif" font-size="11" lengthAdjust="spacing" textLength="59" x="24.5" y="530.7627">-String email</text><text fill="#000000" font-family="sans-serif" font-size="11" lengthAdjust="spacing" textLength="106" x="24.5" y="544.5986">-Date dataNascimento</text><text fill="#000000" font-family="sans-serif" font-size="11" lengthAdjust="spacing" textLength="85" x="24.5" y="558.4346">-String password</text><text fill="#000000" font-family="sans-serif" font-size="11" lengthAdjust="spacing" textLength="71" x="24.5" y="572.2705">-String Funcao</text><text fill="#000000" font-family="sans-serif" font-size="11" lengthAdjust="spacing" textLength="187" x="24.5" y="586.1064">-Colaborador colaboradorResponsavel</text><line style="stroke:#A80036;stroke-width:1.5;" x1="19.5" x2="773.5" y1="592.5234" y2="592.5234"/><text fill="#000000" font-family="sans-serif" font-size="11" lengthAdjust="spacing" textLength="744" x="24.5" y="607.9424">+colab = criar(nomeCurto, nomeCompleto, numMecanografico, localResidencia, email, nrContacto, password, funcao, dataNascimento, colabResponsavel)</text><!--MD5=[efc07359af4002ede352d360e3e5f791]
link EspecificarColaboradorUI to EspecificarColaboradorController--><path codeLine="37" d="M642.5,55.29 C642.5,70.48 642.5,90.88 642.5,109.56 " fill="none" id="EspecificarColaboradorUI-to-EspecificarColaboradorController" style="stroke:#A80036;stroke-width:1.0;stroke-dasharray:7.0,7.0;"/><polygon fill="#A80036" points="642.5,114.78,646.5,105.78,642.5,109.78,638.5,105.78,642.5,114.78" style="stroke:#A80036;stroke-width:1.0;"/><!--MD5=[59cf18256fd8b5aa6b8e176185a9c121]
link EspecificarColaboradorController to RepositorioColaborador--><path codeLine="38" d="M572.34,205.07 C544.05,222.83 511.15,243.49 481.52,262.1 " fill="none" id="EspecificarColaboradorController-to-RepositorioColaborador" style="stroke:#A80036;stroke-width:1.0;stroke-dasharray:7.0,7.0;"/><polygon fill="#A80036" points="477.17,264.83,486.9207,263.4432,481.4076,262.1762,482.6746,256.663,477.17,264.83" style="stroke:#A80036;stroke-width:1.0;"/><!--MD5=[5fc2231942abbc7e29f3d17981ba6651]
link EspecificarColaboradorController to RepositorioEquipa--><path codeLine="39" d="M712.66,205.07 C751.97,229.75 800.15,260.01 836.14,282.62 " fill="none" id="EspecificarColaboradorController-to-RepositorioEquipa" style="stroke:#A80036;stroke-width:1.0;stroke-dasharray:7.0,7.0;"/><polygon fill="#A80036" points="840.47,285.33,834.9654,277.163,836.2324,282.6762,830.7193,283.9432,840.47,285.33" style="stroke:#A80036;stroke-width:1.0;"/><!--MD5=[b95340c32e56c4aaf04f8d46f403aa2b]
link RepositorioColaborador to Colaborador--><path codeLine="40" d="M396.5,368.08 C396.5,384.67 396.5,403.72 396.5,422.59 " fill="none" id="RepositorioColaborador-to-Colaborador" style="stroke:#A80036;stroke-width:1.0;stroke-dasharray:7.0,7.0;"/><polygon fill="#A80036" points="396.5,427.9,400.5,418.9,396.5,422.9,392.5,418.9,396.5,427.9" style="stroke:#A80036;stroke-width:1.0;"/><!--MD5=[125380caab080ee6a9925f0baa6ba746]
@startuml
skinparam classAttributeIconSize 0

class EspecificarColaboradorUI{
  }

class EspecificarColaboradorController{
  +novoColaborador(nomeCurto, nomeCompleto, numMecanografico, localResidencia, email, nrContacto, password, funcao, dataNascimento, colabResponsavel)
  +obterListaEquipas()
  +registaColaborador()
  }

class RepositorioColaborador{
  +novoColaborador(nomeCurto, nomeCompleto, numMecanografico, localResidencia, email, nrContacto, password, funcao, dataNascimento, colabResponsavel)
  +registaColaborador(colab)
  +validaColaborador(colab)
  +criaColaborador(colab)
  }

class RepositorioEquipa{
  +obterListaEquipas()
}

class Colaborador{
  -String numeCurto
  -String nomeCompleto
  -MecanographicNumber numMecanografico
  -String localResidencia
  -String email
  -Date dataNascimento
  -String password
  -String Funcao
  -Colaborador colaboradorResponsavel
  +colab = criar(nomeCurto, nomeCompleto, numMecanografico, localResidencia, email, nrContacto, password, funcao, dataNascimento, colabResponsavel)
}


EspecificarColaboradorUI ..> EspecificarColaboradorController
EspecificarColaboradorController ..> RepositorioColaborador
EspecificarColaboradorController ..> RepositorioEquipa
RepositorioColaborador ..> Colaborador




@enduml

PlantUML version 1.2021.5(Sun Apr 25 12:20:28 BST 2021)
(GPL source distribution)
Java Runtime: OpenJDK Runtime Environment
JVM: Dynamic Code Evolution 64-Bit Server VM
Default Encoding: Cp1252
Language: pt
Country: PT
--></g></svg>